<?xml version="1.0" standalone="no"?>
<!DOCTYPE svg PUBLIC "-//W3C//DTD SVG 20010904//EN"
 "http://www.w3.org/TR/2001/REC-SVG-20010904/DTD/svg10.dtd">
<svg version="1.0" xmlns="http://www.w3.org/2000/svg"
 width="222.000000pt" height="247.000000pt" viewBox="0 0 222.000000 247.000000"
 preserveAspectRatio="xMidYMid meet">

<g transform="translate(0.000000,247.000000) scale(0.100000,-0.100000)"
fill="#000000" stroke="none">
<path d="M993 2225 c-358 -65 -639 -311 -747 -655 -166 -524 152 -1080 691
-1212 174 -42 392 -27 566 40 57 22 67 30 67 50 0 27 3 28 -105 -13 -177 -68
-400 -73 -585 -13 -377 121 -629 468 -630 866 0 247 89 462 265 637 176 177
388 265 640 265 252 0 464 -88 640 -265 130 -130 214 -286 251 -464 20 -103
15 -317 -10 -396 -15 -47 -15 -51 3 -69 19 -18 20 -18 36 35 66 222 30 512
-90 724 -197 347 -604 540 -992 470z"/>
<path d="M1085 2058 c-27 -15 -55 -49 -55 -70 0 -14 -8 -16 -55 -11 -52 5 -56
4 -90 -30 l-35 -35 0 -96 c0 -57 4 -96 10 -96 6 0 10 -11 10 -25 0 -14 -4 -25
-10 -25 -6 0 -10 -82 -10 -227 l0 -227 -84 82 c-80 79 -85 82 -130 82 -36 0
-52 -6 -78 -29 -29 -26 -33 -35 -32 -76 1 -44 5 -51 75 -121 41 -41 79 -72 86
-70 14 6 37 -19 29 -32 -3 -5 20 -33 50 -63 38 -36 70 -82 100 -141 43 -85 44
-90 44 -183 l0 -95 300 0 300 0 0 65 c0 37 -4 65 -10 65 -5 0 -10 9 -10 20 0
11 5 20 10 20 6 0 10 35 10 85 0 81 2 90 45 175 l45 90 0 337 c0 313 -1 340
-19 369 -26 42 -72 60 -122 47 l-39 -10 0 34 c0 77 -53 121 -134 110 -42 -6
-44 -5 -50 23 -10 54 -98 88 -151 58z m73 -121 c3 -12 -3 -17 -22 -17 -25 0
-35 18 -19 34 12 12 38 2 41 -17z m197 -22 l25 -24 0 -251 c0 -243 1 -250 20
-250 19 0 20 7 20 174 0 96 4 186 10 201 11 29 47 46 79 38 47 -12 51 -39 51
-378 l0 -316 -31 -62 c-16 -34 -34 -65 -38 -70 -4 -4 -28 31 -55 78 -26 47
-53 85 -60 85 -16 0 -29 27 -20 41 3 5 -20 53 -50 107 l-56 98 0 142 c0 88 -4
142 -10 142 -5 0 -10 11 -10 25 0 14 5 25 10 25 6 0 10 37 10 90 0 77 3 93 20
110 27 27 56 25 85 -5z m-375 -65 c0 -13 -7 -20 -20 -20 -13 0 -20 7 -20 20 0
13 7 20 20 20 13 0 20 -7 20 -20z m178 -173 c4 -20 -25 -34 -40 -19 -15 15 -1
44 19 40 10 -2 19 -11 21 -21z m-180 -89 c-5 -34 -38 -37 -38 -4 0 20 5 26 21
26 15 0 20 -5 17 -22z m-319 -312 c8 -10 8 -16 -3 -25 -10 -9 -16 -8 -26 3
-12 15 -6 36 9 36 5 0 14 -6 20 -14z m153 -178 c-17 -17 -47 9 -30 29 10 12
13 12 27 -1 11 -12 12 -19 3 -28z m533 -113 c0 -13 -8 -21 -22 -23 -17 -3 -23
2 -23 16 0 10 3 22 7 26 13 13 38 1 38 -19z m45 -45 c0 -13 -7 -20 -20 -20
-13 0 -20 7 -20 20 0 13 7 20 20 20 13 0 20 -7 20 -20z m-40 -220 l0 -110
-135 0 -135 0 0 45 c0 25 -4 45 -10 45 -5 0 -10 9 -10 20 0 11 5 20 10 20 6 0
10 20 10 45 l0 45 135 0 135 0 0 -110z"/>
<path d="M1124 776 c-3 -7 -4 -38 -2 -67 l3 -54 88 -3 87 -3 0 71 0 70 -85 0
c-63 0 -87 -4 -91 -14z m136 -56 c0 -17 -7 -20 -45 -20 -38 0 -45 3 -45 20 0
17 7 20 45 20 38 0 45 -3 45 -20z"/>
<path d="M1900 833 c-15 -19 -19 -35 -15 -53 12 -50 63 -66 89 -28 22 31 20
64 -4 88 -27 27 -44 25 -70 -7z"/>
<path d="M1730 600 c-24 -24 -26 -57 -4 -88 30 -44 84 -17 84 42 0 32 -25 66
-48 66 -7 0 -21 -9 -32 -20z"/>
</g>
</svg>
